<?xml version="1.0" encoding="iso-8859-1"?>
<!-- Generator: Adobe Illustrator 19.0.0, SVG Export Plug-In . SVG Version: 6.00 Build 0)  -->
<svg version="1.1" id="Capa_1" xmlns="http://www.w3.org/2000/svg" xmlns:xlink="http://www.w3.org/1999/xlink" x="0px" y="0px"
	 viewBox="0 0 512 512" style="enable-background:new 0 0 512 512;" xml:space="preserve">
<g>
	<g transform="translate(1 1)">
		<path style="fill:#A4C2F7;" d="M468.333,220.867c0,170.667-213.333,281.6-213.333,281.6s-6.4-3.328-17.067-9.728
			C187.331,462.104,41.667,361.923,41.667,220.867C41.639,109.668,127.086,17.126,237.933,8.301
			c5.631-0.512,11.35-0.768,17.067-0.768c56.582-0.008,110.849,22.465,150.859,62.475
			C445.868,110.017,468.342,164.285,468.333,220.867z"/>
		<path style="fill:#E3E7F2;" d="M434.2,220.867c0,141.056-145.665,241.237-196.267,271.872
			C187.331,462.104,41.667,361.923,41.667,220.867C41.639,109.668,127.086,17.126,237.933,8.301
			C348.781,17.126,434.228,109.668,434.2,220.867z"/>
		<circle style="fill:#A4C2F7;" cx="255" cy="220.867" r="170.667"/>
		<g>
			<path style="fill:#E3E7F2;" d="M366.445,347.075c-23.907,22.714-54.19,37.573-86.784,42.581L263.533,357.4l12.117-18.176
				c5.71,2.104,12.102,1.103,16.896-2.645l25.6-20.139l37.888,21.333C360.055,340.196,363.586,343.351,366.445,347.075z"/>
			<path style="fill:#E3E7F2;" d="M279.661,389.656c-16.346,2.503-32.977,2.503-49.323,0l16.128-32.256h17.067L279.661,389.656z"/>
			<path style="fill:#E3E7F2;" d="M246.467,357.4l-16.128,32.256c-32.594-5.008-62.877-19.867-86.784-42.581
				c2.859-3.723,6.39-6.878,10.411-9.301l37.888-21.333l25.6,20.139c4.794,3.748,11.186,4.749,16.896,2.645L246.467,357.4z"/>
		</g>
		<path style="fill:#A4C2F7;" d="M320.195,201.667v19.285c-0.042,5.401-2.184,10.573-5.974,14.421h-0.085
			c-2.871,2.889-4.804,6.577-5.546,10.581c-4.428,11.21-10.622,21.638-18.347,30.891c-0.691,0.91-1.079,2.015-1.109,3.157v16.896
			c-0.014,0.259,0.015,0.518,0.085,0.768h-0.086L255,321.816l-11.265-7.936l-22.869-16.213h-0.085
			c0.07-0.25,0.099-0.509,0.085-0.768v-16.896c-0.03-1.143-0.418-2.247-1.109-3.157c-7.724-9.252-13.918-19.681-18.347-30.891
			c-0.742-4.005-2.675-7.692-5.546-10.581h-0.085c-3.79-3.848-5.933-9.021-5.974-14.421v-19.285
			c0.005-3.176,0.765-6.306,2.219-9.131l1.109-2.304c1.396-2.842,2.126-5.964,2.133-9.131v-27.733
			c0.007-23.986,19.45-43.428,43.435-43.435h32.596c23.986,0.006,43.429,19.449,43.435,43.435v27.733
			c0.008,3.166,0.737,6.289,2.133,9.131l1.109,2.304C319.429,195.361,320.19,198.49,320.195,201.667z"/>
		<path style="fill:#D4E1F4;" d="M297.667,201.667v19.285c-0.042,5.401-2.184,10.573-5.973,14.421h-0.085
			c-2.872,2.888-4.805,6.576-5.547,10.581c-4.428,11.21-10.622,21.639-18.347,30.891c-0.692,0.91-1.08,2.015-1.109,3.157v16.896
			c-0.014,0.259,0.015,0.518,0.085,0.768h-0.085l-22.87,16.213l-22.869-16.213h-0.085c0.07-0.25,0.099-0.509,0.085-0.768v-16.896
			c-0.03-1.143-0.418-2.247-1.109-3.157c-7.724-9.252-13.918-19.681-18.347-30.891c-0.742-4.005-2.675-7.692-5.546-10.581h-0.085
			c-3.79-3.848-5.933-9.021-5.974-14.421v-19.285c0.005-3.176,0.765-6.306,2.219-9.131l1.109-2.304
			c1.396-2.842,2.126-5.964,2.133-9.131v-27.733c0.007-23.986,19.45-43.428,43.435-43.435h10.069
			c23.986,0.006,43.428,19.449,43.435,43.435v27.733c0.007,3.166,0.737,6.289,2.133,9.131l1.109,2.304
			C296.901,195.361,297.661,198.49,297.667,201.667z"/>
		<g>
			<path style="fill:#FFFFFF;" d="M255,321.816l-14.592,13.824c-1.712,1.651-3.787,2.878-6.059,3.584
				c-5.71,2.104-12.102,1.103-16.896-2.645l-25.6-20.139l26.283-14.848c1.451-0.819,2.431-2.273,2.645-3.925h0.085L255,321.816z"/>
			<path style="fill:#FFFFFF;" d="M318.147,316.44l-25.6,20.139c-4.794,3.748-11.186,4.749-16.896,2.645
				c-2.272-0.706-4.346-1.933-6.059-3.584L255,321.816l34.133-24.149h0.085c0.214,1.652,1.195,3.107,2.645,3.925L318.147,316.44z"/>
		</g>
		<path style="fill:#E3E7F2;" d="M275.651,339.224L263.533,357.4h-17.067l-12.117-18.176c2.272-0.706,4.346-1.933,6.059-3.584
			L255,321.816l14.592,13.824C271.304,337.291,273.379,338.518,275.651,339.224z"/>
		<path style="fill:#FFFFFF;" d="M237.933,492.739c10.667,6.4,17.067,9.728,17.067,9.728s4.778-2.498,12.774-7.213
			c-1.332-0.782-2.731-1.609-4.241-2.515C212.931,462.104,67.267,361.923,67.267,220.867
			C67.239,109.668,152.686,17.126,263.533,8.301c1.844-0.168,3.729-0.139,5.589-0.252C264.449,7.744,259.75,7.533,255,7.533
			c-5.717,0-11.435,0.256-17.067,0.768C127.086,17.126,41.639,109.668,41.667,220.867
			C41.667,361.923,187.331,462.104,237.933,492.739z"/>
	</g>
	<g>
		<path style="fill:#FFFFFF;" d="M252.064,511.038c-32.93-18.243-63.96-39.722-92.631-64.118
			c-33.994-28.051-63.343-61.295-86.963-98.504c-24.28-37.805-37.555-81.625-38.336-126.549H51.2
			c0.781,41.776,13.184,82.508,35.819,117.629c22.679,35.666,50.845,67.529,83.458,94.413
			c27.703,23.562,57.668,44.325,89.459,61.987L252.064,511.038z"/>
		<g>
			<path style="fill:#428DFF;" d="M159.432,446.919l6.643,5.566c1.753,1.448,4.012,2.135,6.275,1.908
				c2.262-0.228,4.34-1.351,5.769-3.12c2.918-3.654,2.384-8.971-1.204-11.971l-6.438-5.394
				c-32.613-26.884-60.779-58.747-83.458-94.413C64.384,304.374,51.981,263.642,51.2,221.867c0-113.108,91.692-204.8,204.8-204.8
				s204.8,91.692,204.8,204.8c0,150.942-176.134,255.807-204.733,271.828c-8.294-4.605-16.675-9.637-24.796-14.842
				c-3.954-2.48-9.164-1.363-11.754,2.52c-1.253,1.902-1.689,4.228-1.212,6.455c0.477,2.227,1.829,4.169,3.751,5.391
				c9.632,6.16,19.218,11.991,29.552,17.56l0.067,0.038c0.133,0.072,0.254,0.149,0.389,0.221l0.024-0.046
				c1.207,0.645,2.552,0.991,3.921,1.008c1.367,0.001,2.714-0.329,3.925-0.962c8.899-4.629,217.933-115.321,217.933-289.171
				C477.867,99.333,378.534,0,256,0S34.133,99.333,34.133,221.867c0.781,44.924,14.055,88.744,38.335,126.549
				C96.089,385.625,125.439,418.869,159.432,446.919z"/>
			<path style="fill:#428DFF;" d="M197.229,458.313c-1.101,0.2-2.154,0.605-3.106,1.194c-0.965,0.562-1.811,1.306-2.492,2.191
				c-1.331,1.829-1.913,4.098-1.628,6.342c0.399,2.251,1.637,4.268,3.465,5.642c1.874,1.306,4.169,1.862,6.433,1.56l1.581-0.441
				c0.541-0.198,1.052-0.468,1.52-0.803c0.48-0.252,0.919-0.575,1.302-0.959c0.404-0.404,0.778-0.836,1.122-1.293
				c1.273-1.866,1.807-4.139,1.499-6.377C206.071,460.821,201.819,457.727,197.229,458.313L197.229,458.313z"/>
			<path style="fill:#428DFF;" d="M230.817,399.188c0.119,0,0.233-0.043,0.352-0.048c8.222,1.218,16.519,1.862,24.831,1.928
				c8.563-0.068,17.11-0.75,25.575-2.041c0.202-0.034,0.403-0.044,0.604-0.093c92.7-13.688,159.203-96.483,152.576-189.954
				S350.607,42.925,256.903,42.454c-93.704-0.471-171.95,71.328-179.518,164.727c-7.568,93.399,58.099,176.859,150.656,191.48
				C228.931,398.99,229.869,399.168,230.817,399.188z M155.295,348.702c1.052-0.913,2.171-1.747,3.347-2.493l32.891-18.546
				l21.093,16.588c4.616,3.673,10.343,5.667,16.242,5.654c0.683,0,1.358-0.135,2.039-0.188l6.203,9.298l-11.052,22.097
				C200.178,376.244,175.884,365.117,155.295,348.702z M309.667,194.933l1.217,2.512c0.828,1.616,1.262,3.405,1.267,5.221v19.283
				c-0.033,2.917-1.113,5.725-3.042,7.912c-0.175,0.15-0.35,0.313-0.517,0.479c-4.07,4.076-6.818,9.285-7.883,14.946
				c-4.509,9.817-10.174,19.06-16.875,27.533c-1.761,2.367-2.721,5.234-2.742,8.183v13.249l-25.6,18.113l-25.6-18.113v-13.249
				c-0.02-2.944-0.981-5.804-2.742-8.163c-6.689-8.465-12.351-17.693-16.867-27.491c-1.064-5.683-3.817-10.914-7.9-15.008
				c-0.164-0.166-0.337-0.323-0.517-0.471c-1.929-2.191-3.008-5.002-3.042-7.921v-19.284c0.014-1.885,0.48-3.74,1.358-5.408
				l1.125-2.317c1.957-3.998,2.978-8.39,2.983-12.842v-27.733c0.022-19.266,15.634-34.878,34.9-34.9h32.592
				c19.268,0.018,34.885,15.631,34.908,34.9V182.1C306.695,186.548,307.713,190.937,309.667,194.933z M284.994,381.257
				l-11.121-22.245l6.192-9.288c0.685,0.054,1.365,0.189,2.052,0.189c5.879,0.016,11.589-1.968,16.192-5.625l21.135-16.626
				l32.665,18.413c1.445,0.884,2.81,1.892,4.081,3.012C335.452,365.483,311.003,376.53,284.994,381.257z M251.525,349.867
				l-4.716-7.069l8.681-8.226l8.68,8.226l-4.713,7.069H251.525z M287.717,330.908c-3.51,2.736-8.482,2.54-11.767-0.462l-7.042-6.671
				l19.352-13.692l15.104,8.514L287.717,330.908z M222.716,310.078l19.359,13.697l-7.033,6.662
				c-3.309,3.008-8.305,3.191-11.825,0.433l-15.606-12.276L222.716,310.078z M244,383.393l8.232-16.459h6.518l8.253,16.509
				C263.35,383.69,259.715,384,256,384C251.95,384,247.977,383.685,244,383.393L244,383.393z M93.867,221.867
				c-0.103-73.689,49.5-138.18,120.749-156.989s146.22,12.795,182.503,76.933s24.75,144.677-28.074,196.055
				c-2.522-2.481-5.315-4.669-8.327-6.524l-62.558-35.267v-13.933c12.683-17.558,17.925-26.684,19.3-33.583
				c0.383-2.082,1.319-4.023,2.708-5.621c0.225-0.188,0.433-0.387,0.642-0.596c5.338-5.452,8.352-12.762,8.408-20.392v-19.283
				c0.005-4.458-1.043-8.853-3.058-12.829l-1.125-2.33c-0.829-1.683-1.265-3.532-1.275-5.408v-27.733
				c-0.035-28.689-23.286-51.936-51.975-51.966h-32.592c-28.687,0.031-51.935,23.279-51.967,51.967V182.1
				c-0.012,1.877-0.448,3.727-1.275,5.413l-1.025,2.116c-2.077,4.032-3.163,8.502-3.167,13.038v19.283
				c0.056,7.63,3.07,14.94,8.408,20.392c0.2,0.206,0.411,0.401,0.633,0.583c1.405,1.619,2.349,3.587,2.733,5.696
				c1.358,6.837,6.6,15.958,19.292,33.533v13.912l-62.792,35.408c-2.745,1.688-5.305,3.659-7.639,5.88
				C111.348,306.95,93.856,265.322,93.867,221.867z"/>
		</g>
	</g>
</g>
<g>
</g>
<g>
</g>
<g>
</g>
<g>
</g>
<g>
</g>
<g>
</g>
<g>
</g>
<g>
</g>
<g>
</g>
<g>
</g>
<g>
</g>
<g>
</g>
<g>
</g>
<g>
</g>
<g>
</g>
</svg>
